<svg xmlns="http://www.w3.org/2000/svg" width="200" height="200" class="icon" viewBox="0 0 1024 1024"><path d="m840.041 326.209-38.23 5.392c-11.083-53.866-20.334-80.82-33.872-98.78-18.47-26.33-34.516-34.853-122.633-34.853H553.71v555.051c0 89.212 8.995 99.015 122.398 105.002v35.324H349.837v-35.324c109.105-5.987 122.07-14.603 122.07-105.002V197.968h-86.04c-88.168 0-112.215 8.524-126.992 33.656-12.904 19.157-22.185 50.296-35.734 99.977h-37.565c4.297-66.453 11.082-131.177 13.538-194.029H224.4c17.243 25.133 32.019 19.822 64.09 19.822h457.878c30.822 0 37.565 1.115 54.849-19.822h27.118c0 53.284 5.556 126.389 11.706 188.637z"/></svg>