<svg xmlns="http://www.w3.org/2000/svg" width="60" height="60" style="shape-rendering:geometricPrecision;text-rendering:geometricPrecision;image-rendering:optimizeQuality;fill-rule:evenodd;clip-rule:evenodd" viewBox="-174 0 1774 1948"><path d="M729.5 3.5c25.249-1.983 49.249 2.517 72 13.5l-1 1c32.786 22.098 62.619 47.931 89.5 77.5l39 41a4459.814 4459.814 0 0 0 72 87 2480.628 2480.628 0 0 1 39 55 7899.95 7899.95 0 0 0 64 101c52.11 91.217 94.11 186.883 126 287a576.038 576.038 0 0 1 15 56c2.67 5.333 5.33 10.667 8 16a4565.573 4565.573 0 0 0 33 111c6.41 24.55 12.24 49.217 17.5 74a36.34 36.34 0 0 1-13-2.5 1688.77 1688.77 0 0 1-42-19 983.555 983.555 0 0 1-58-19l-60-16a4346.837 4346.837 0 0 1-49-8c-17.6-3.696-31.76-12.529-42.5-26.5a38.75 38.75 0 0 1-5-13 588.31 588.31 0 0 1-2.5-77.5c-2.16-19.822-6-39.322-11.5-58.5a1360.746 1360.746 0 0 0-45-130 435.813 435.813 0 0 0-34-62c-7.155-15.656-15.821-30.322-26-44a133.182 133.182 0 0 1-5-12c-38.847-57.879-83.347-111.379-133.5-160.5-7.954-7.279-16.954-12.946-27-17-1.333-.667-2.667-.667-4 0-31.585 32.569-59.752 67.735-84.5 105.5-48.689 72.045-87.356 149.378-116 232-.997 3.301-1.33 6.634-1 10 4.323 5.421 9.823 9.254 16.5 11.5 75.145 20.272 147.145 48.605 216 85 72.291 40.046 141.791 84.212 208.5 132.5 1.252 2.514 1.752 5.18 1.5 8-56.945 6.985-112.612 19.818-167 38.5a888.86 888.86 0 0 0-52 22c-13.928 5.6-28.261 6.933-43 4a395.393 395.393 0 0 1-30-10 7208.216 7208.216 0 0 0-120-79 1100.359 1100.359 0 0 0-155-74 3700.97 3700.97 0 0 0-114-37c-5.86-1.859-9.693-5.693-11.5-11.5-1.093-11.069.573-21.735 5-32a22.755 22.755 0 0 0 4-5 361.327 361.327 0 0 1 13-46c35.292-95.246 78.625-186.579 130-274a16095.206 16095.206 0 0 0 90-145 6504.532 6504.532 0 0 0 65-87A2002.14 2002.14 0 0 1 666.5 38c18.457-16.227 39.457-27.727 63-34.5Zm-416 1943h-11c-44.749-74.37-76.915-154.04-96.5-239-17.62-73.29-26.954-147.63-28-223a3658.67 3658.67 0 0 1 0-121 2391.379 2391.379 0 0 1 29-249c6.907-47.72 21.24-93.05 43-136a201.284 201.284 0 0 1 8.5-10.5 7516.713 7516.713 0 0 1 173-1.5l171 .5c9.1 2.217 17.767 5.55 26 10a1283.725 1283.725 0 0 0 73 40c33.207 20.87 61.707 47.03 85.5 78.5 35.166 46.25 65.166 95.92 90 149a2858.714 2858.714 0 0 1 60 130c10.205 11.57 17.705 24.74 22.5 39.5-.333 4-2 7.33-5 10a57.077 57.077 0 0 1-15 9c-104.845 33.93-203.179 80.93-295 141a1650.197 1650.197 0 0 0-78 58 522.19 522.19 0 0 0-40.5 36.5 2745.047 2745.047 0 0 1-61 64c-9.046 11.76-15.713 24.76-20 39a426.532 426.532 0 0 0-2 38c-2.127 9.25-6.127 17.59-12 25-14.057 19.9-29.89 38.4-47.5 55.5a508.92 508.92 0 0 0-40 36c-9.102 8.29-19.102 15.12-30 20.5Zm143-859c31.41 14.53 60.743 32.37 88 53.5a3696.903 3696.903 0 0 0 78 67c27.071 26.28 54.237 52.45 81.5 78.5a31.352 31.352 0 0 0 5 8c8.531 8.2 16.698 16.7 24.5 25.5a16340.122 16340.122 0 0 1-305 218c-9.996 7-20.33 13.5-31 19.5a819.062 819.062 0 0 1-21.5-107c-5.194-57.08-4.528-114.08 2-171 9.433-71.15 35.6-135.15 78.5-192Zm897 859h-39c4.88-112.25-8.62-222.25-40.5-330-19.83-71.99-47.16-140.99-82-207a7280.744 7280.744 0 0 1-53-101c-16.5-27-32.5-54.34-48-82a3448.428 3448.428 0 0 0-96-143c-12-15.33-24-30.67-36-46a276.985 276.985 0 0 1-28-28c-2.477-4.28-1.644-7.78 2.5-10.5a36.314 36.314 0 0 1 11-4 2092.477 2092.477 0 0 1 260-25c33-.667 66-.667 99 0 8.86 2.189 15.36 7.356 19.5 15.5 2.32 9.306 5.99 17.97 11 26 15.01 47.02 27.67 94.69 38 143a2720.098 2720.098 0 0 1 29 164 2723.166 2723.166 0 0 1 10 331c-5.2 58.27-12.53 116.27-22 174a804.402 804.402 0 0 1-35.5 123Z"/></svg>