<svg xmlns="http://www.w3.org/2000/svg" width="200" height="200" class="icon" viewBox="0 0 1024 1024"><path d="M334.222 782.222A14.222 14.222 0 0 0 320 796.444v28.445a14.222 14.222 0 1 0 28.444 0v-28.445a14.222 14.222 0 0 0-14.222-14.222zm0-312.889A14.222 14.222 0 0 0 320 483.556v241.777a14.222 14.222 0 1 0 28.444 0V483.556a14.222 14.222 0 0 0-14.222-14.223zm170.667 0a14.222 14.222 0 0 0-14.222 14.223v341.333a14.222 14.222 0 1 0 28.444 0V483.556a14.222 14.222 0 0 0-14.222-14.223zm170.667 0a14.222 14.222 0 0 0-14.223 14.223v341.333a14.222 14.222 0 1 0 28.445 0V483.556a14.222 14.222 0 0 0-14.222-14.223z"/><path d="M856.889 170.667H732.004c-3.855-86.6-36.068-128-146.333-128H415.004c-101.973 0-133.788 32.796-137.33 128H167.112A117.333 117.333 0 0 0 49.778 288v7.111c0 58.738 43.207 107.264 99.555 115.854v433.48c0 117.859 35.172 136.888 137.671 136.888h426.667c110.507 0 146.773-28.145 146.773-136.889V412.26c63.133-1.892 113.778-53.561 113.778-117.149V288A117.333 117.333 0 0 0 856.89 170.667zM415.004 99.556h170.667c68.068 0 86.727 7.267 89.458 71.11h-340.75c1.024-61.795 9.856-71.11 80.625-71.11zm298.667 824.888H287.004c-82.673 0-80.782-5.248-80.782-80v-432h597.334v432c0 77.753-9.984 80-89.885 80zm203.662-629.333a60.444 60.444 0 0 1-60.444 60.445H167.11a60.444 60.444 0 0 1-60.444-60.445V288a60.444 60.444 0 0 1 60.444-60.444h689.78A60.444 60.444 0 0 1 917.333 288v7.111z"/></svg>