<svg xmlns="http://www.w3.org/2000/svg" xml:space="preserve" style="enable-background:new 0 0 80 50" viewBox="0 0 80 50"><path d="M68 35h-8c-1.7 0-3 1.3-3 3s1.3 3 3 3h8c1.7 0 3-1.3 3-3s-1.3-3-3-3zm-16 0H12c-1.7 0-3 1.3-3 3s1.3 3 3 3h40c1.7 0 3-1.3 3-3s-1.3-3-3-3zm16-9h-8c-1.7 0-3 1.3-3 3s1.3 3 3 3h8c1.7 0 3-1.3 3-3s-1.3-3-3-3zm-16 0h-8c-1.7 0-3 1.3-3 3s1.3 3 3 3h8c1.7 0 3-1.3 3-3s-1.3-3-3-3zm-24 6h8c1.7 0 3-1.3 3-3s-1.3-3-3-3h-8c-1.7 0-3 1.3-3 3s1.3 3 3 3zm-16 0h8c1.7 0 3-1.3 3-3s-1.3-3-3-3h-8c-1.7 0-3 1.3-3 3s1.3 3 3 3zm37-12c0 1.7 1.3 3 3 3h8c1.7 0 3-1.3 3-3s-1.3-3-3-3h-8c-1.7 0-3 1.3-3 3zm-2 0c0-1.7-1.3-3-3-3h-8c-1.7 0-3 1.3-3 3s1.3 3 3 3h8c1.7 0 3-1.3 3-3zm-16 0c0-1.7-1.3-3-3-3h-8c-1.7 0-3 1.3-3 3s1.3 3 3 3h8c1.7 0 3-1.3 3-3zM68 8h-8c-1.7 0-3 1.3-3 3s1.3 3 3 3h8c1.7 0 3-1.3 3-3s-1.3-3-3-3zm-24 6h8c1.7 0 3-1.3 3-3s-1.3-3-3-3h-8c-1.7 0-3 1.3-3 3s1.3 3 3 3zm-16 0h8c1.7 0 3-1.3 3-3s-1.3-3-3-3h-8c-1.7 0-3 1.3-3 3s1.3 3 3 3zm-16 0h8c1.7 0 3-1.3 3-3s-1.3-3-3-3h-8c-1.7 0-3 1.3-3 3s1.3 3 3 3z"/><path d="M70 0H10C4.5 0 0 4.5 0 10v30c0 5.5 4.5 10 10 10h60c5.5 0 10-4.5 10-10V10c0-5.5-4.5-10-10-10zm4 40c0 2.2-1.8 4-4 4H10c-2.2 0-4-1.8-4-4V10c0-2.2 1.8-4 4-4h60c2.2 0 4 1.8 4 4v30z"/></svg>