<svg xmlns="http://www.w3.org/2000/svg" xml:space="preserve" viewBox="0 0 120 120"><path d="M88 70h-8c-1.66 0-3 1.34-3 3s1.34 3 3 3h8c1.66 0 3-1.34 3-3s-1.34-3-3-3zm-16 0H32c-1.66 0-3 1.34-3 3s1.34 3 3 3h40c1.66 0 3-1.34 3-3s-1.34-3-3-3zm16-9h-8c-1.66 0-3 1.34-3 3s1.34 3 3 3h8c1.66 0 3-1.34 3-3s-1.34-3-3-3zm-16 0h-8c-1.66 0-3 1.34-3 3s1.34 3 3 3h8c1.66 0 3-1.34 3-3s-1.34-3-3-3zm-24 6h8c1.66 0 3-1.34 3-3s-1.34-3-3-3h-8c-1.66 0-3 1.34-3 3s1.34 3 3 3zm-16 0h8c1.66 0 3-1.34 3-3s-1.34-3-3-3h-8c-1.66 0-3 1.34-3 3s1.34 3 3 3zm37-12c0 1.66 1.34 3 3 3h8c1.66 0 3-1.34 3-3s-1.34-3-3-3h-8c-1.66 0-3 1.34-3 3zm-2 0c0-1.66-1.34-3-3-3h-8c-1.66 0-3 1.34-3 3s1.34 3 3 3h8c1.66 0 3-1.34 3-3zm-16 0c0-1.66-1.34-3-3-3h-8c-1.66 0-3 1.34-3 3s1.34 3 3 3h8c1.66 0 3-1.34 3-3zm37-12h-8c-1.66 0-3 1.34-3 3s1.34 3 3 3h8c1.66 0 3-1.34 3-3s-1.34-3-3-3zm-24 6h8c1.66 0 3-1.34 3-3s-1.34-3-3-3h-8c-1.66 0-3 1.34-3 3s1.34 3 3 3zm-16 0h8c1.66 0 3-1.34 3-3s-1.34-3-3-3h-8c-1.66 0-3 1.34-3 3s1.34 3 3 3zm-16 0h8c1.66 0 3-1.34 3-3s-1.34-3-3-3h-8c-1.66 0-3 1.34-3 3s1.34 3 3 3z"/><path d="M90 35H30c-5.52 0-10 4.48-10 10v30c0 5.52 4.48 10 10 10h60c5.52 0 10-4.48 10-10V45c0-5.52-4.48-10-10-10zm4 40c0 2.21-1.79 4-4 4H30c-2.21 0-4-1.79-4-4V45c0-2.21 1.79-4 4-4h60c2.21 0 4 1.79 4 4v30z"/></svg>