<svg xmlns="http://www.w3.org/2000/svg" viewBox="0 0 110 82"><style>.st1{fill-rule:evenodd;clip-rule:evenodd}</style><path d="M108.9 30v17c0 1.1-.2 2-1 2-.6 0-4.4-2.7-6.1-4h-7.7c.9 3.1 4 5.7 7.2 5.9.7.1 1.2.5 1.2 1.1 0 .5-.5 1-1.1 1.1-6.1 2.3-7.6 8.9-7.6 28.1 0 .4-.5.8-1 .8s-1-.4-1-.8c0-19.2-2.1-25.5-7.6-28.1-.6-.1-1.1-.5-1.1-1.1 0-.6.5-1 1.2-1.1 3.2-.3 6.3-2.8 7.2-5.9H84c-1.7 1.3-5.5 4-6.1 4-.8 0-1-.9-1-2V25c3.1 0 5.9 1.1 7.2 2h7.8c-2-3.6-3.6-4.7-7.4-4.9-.6-.1-1.1-.5-1.1-1.1 0-.5.5-1 1.1-1.1 5.3-.4 7.4-7.9 7.4-19.1 0-.4.5-.8 1-.8s1 .4 1 .8c0 11.2 2.3 18.5 7.4 19.1.7.1 1.2.6 1.2 1.1 0 .5-.5 1-1.1 1.1-3.5.2-6.1 1.3-7.4 4.9h7c0-.5 1.3-2 2-2 2.4 0 7 2.2 7 3-.1.7-.4 1.3-1.1 2zM91.7 43c-1-3.5-3.6-6-6.8-6v6h6.8zm-6.8-14v6c3.1 0 5.8-2.5 6.8-6h-6.8zm16 0h-6.8c1 3.5 3.6 6 6.8 6v-6zm-6.8 14h6.8v-6c-3.1 0-5.8 2.5-6.8 6zM70 47c-.6 0-1-.5-1-2V33h6v7c0 3.4-4.4 7-5 7zm0-23c.8 0 5 5.1 5 6s-.3 1-1 1h-7v24c0 3.4-4.4 7-5 7s-1-.5-1-2V29h-7.9c-.5 0-.8-.5-.6-.9l.3-.7c.1-.2.3-.4.6-.4h9.5c-.4-3.1-2.9-5.5-6-5.9-.5-.1-.9-.6-.9-1.1 0-.5.4-1 .9-1.1 3.1-.4 5.6-2.8 6-6 .1-.5.6-.9 1.1-.9.5 0 1 .4 1.1.9.4 3.2 2.9 5.6 6 6 .5.1.9.6.9 1.1 0 .5-.4 1-.9 1.1-3.1.4-5.5 2.9-6 5.9h.9c1.4-1.3 3.4-3 4-3zM59 43c0 8-6.6 13-15 13 7.7-3 9-4.6 9-14V31h6v12z" class="st1"/><path d="M72 20c0 .5-.4 1-.9 1.1-3.1.4-5.6 3-6 6-.1.5-.6.9-1.1.9-.5 0-1-.4-1.1-.9-.4-3.5-3.4-6.1-6.9-6.1H35.2l2.3 2.3c.4.4.4 1 0 1.4L35.2 27H42c0-.5 1.3-2 2-2 2.4 0 7 2.2 7 3 0 .7-.3 1.3-1 2v11c0 1-6.2 3-7 3s-1-.9-1-2v-1h-4v14c0 2.6-5.5 7-7 7-.8 0-1-.9-1-2V41h-4.9c-1.7 1.3-5.5 3-6.1 3-.8 0-1-.9-1-2V25c3.1 0 5.9 1.1 7.2 2h7.6l-2.3-2.3c-.4-.4-.4-1 0-1.4l2.3-2.3H20c-1.5 0-2.9.5-4 1.3V39C16 49.7 4.3 58 0 58c5.7-7 8-10.8 8-17V22.3c-.9-.6-1.9-1-3.1-1.2-.5-.1-.9-.6-.9-1.1 0-.5.4-1 .9-1.1 3.1-.4 5.6-2.8 6-6 .1-.5.6-.9 1.1-.9.5 0 1 .4 1.1.9.4 3.5 3.4 6.1 6.9 6.1h36c3.5 0 6.5-2.6 6.9-6.1.1-.5.6-.9 1.1-.9.5 0 1 .4 1.1.9.4 3 2.9 5.6 6 6 .5.1.9.6.9 1.1zm-46 9v4h13c.6 0 1 .4 1 1s-.4 1-1 1H26v4h16V29H26zm1 16.4v.6c0 1.1.6 1.7 1.6 2.4.3.2.5.6.4 1.1-.1.4-.4.7-.8.7-5.4.5-9.2 1.6-9.2 2.8 0 1.1 2.8 2 7 2.5v1c-7.1-.7-12-2.5-12-4.5 0-3 5.4-5.6 13-6.6zm14 .6v-.6c7.6 1 13 3.5 13 6.6 0 2-4.9 3.8-12 4.6v-1c4.2-.5 7-1.5 7-2.5 0-1.2-3.8-2.3-9.2-2.8-.4 0-.7-.3-.8-.7-.1-.4 0-.8.4-1 1-.9 1.6-1.5 1.6-2.6z" class="st1"/></svg>