<svg xmlns="http://www.w3.org/2000/svg" xml:space="preserve" viewBox="0 0 200 100"><path d="M23.8 25 13.1 53.7h7.5l-6.2 13.8V75h17.5v-7.5h-8.1l8.1-23.2H25L32.5 25zm37.5 0H40l-4.4 8.1h8.8l1.3-1.9h5l-3.1 6.3H34.4V75h27.5v-7.5h-20v-3.8h20V37.5h-6.3L61.3 25zm-6.9 31.2H41.9V45H45v8.8h6.3V45h3.1v11.2zm56.2-20-6.2 7.7-6.3-7.7h-10L99.4 50 88.1 63.8h10l6.3-7.7 6.2 7.7h10L109.4 50l11.2-13.8z"/><path d="M76.9 75h47.5v-7.5h-40v-35h40V25H76.9zm110-26.9V35h-19.4v-2.5h14.4V25h-37.5v7.5H160V35h-20.6v13.1h7.5v-7.5H160v1.9l-2.8 2.1-1.6-1.5h-6.2v7.4l-9.4 7v9.3l23.1-18.1h1.3l21.9 18.1v-9.3l-9.4-7.5v-6.9h-6.3l-1 1-2.1-1.6v-1.9h11.9v7.5z"/><path d="m163.1 52.5-3.9 3 .2 2.6h-3.8l-6.8 5.7h19.3v3.7h-13.7V75h13.1l10.6-11.2-13.7-11.3z"/></svg>