<svg xmlns="http://www.w3.org/2000/svg" xml:space="preserve" style="enable-background:new 0 0 73 56" viewBox="0 0 73 56"><path d="M60 8.2c-.2 0-.2.5-.2.5s-.7 2.3-1.8 4.4c-1.1 1.7-3.8 2.3-3.8 2.3s-.3 0-.4.2c0 .2.3.2.3.2l2.7.9c1.4.4 2 2.4 2.2 3-2.5 0-5 0-5.2-.1-.3-.1-2.8-1.3-3.8-1.2-.6.1-.7.5-.7.5l-.1 14.3v.8c.2.3 2 .1 3-.8.8-.7 1.7-1.6 2.1-2l.2-.2c.1-.1.4 0 .4 0H59c-.1.4-.6 2.2-1.5 2.9-.5.7-3.5 1.5-3.5 1.5s-.2.1-.2.3c0 .1.2.2.2.2s3.5.4 4.3 2.3c1.1 2.7 1.6 4.5 1.6 4.5s.1.3.3.3c.1 0 .3-.3.3-.3S61 41 62 38.2c.6-1.9 3.9-2.2 3.9-2.2s.5-.1.5-.4c0-.3-.5-.3-.5-.3s-2-.3-3.5-1.4c-1.1-.8-1.4-2.3-1.4-2.8h4.3c.1 0 .1.1.2.2.3.4.9 1.4 1.9 2 1.4.8 2.8 1.1 3.1.9.3-.1.3-.4.3-.4V22.1c0-.5 1.2-1.2 1.2-1.7s-3.4-2.1-4.1-2.1c-1.7.1-2.1 1.2-2.5 1.4-.2 0-2.4.1-4.4.1.2-.6.6-2.1 1.8-2.7 1.6-.8 3.2-1.2 3.2-1.2s.4 0 .4-.2-.4-.2-.4-.2-2.5-.2-3.6-2.2c-1.3-2.6-1.8-4.6-1.8-4.6s-.4-.5-.6-.5zm-4.9 12.6h3.6s.3 0 .3.1 0 .1-.1.4c-.2.6-.8 1.6-1.5 2.3-.7.6-1.7.9-2.3 1-.3.1-.3 0-.4 0-.1-.1-.1-.2-.1-.2v-2.8s0-.3.1-.5c.1-.3.4-.3.4-.3zm9.7 0s.3 0 .4.2c.1.2.1.5.1.5v2.8s0 .1-.1.2-.1.1-.4 0c-.6-.1-1.5-.4-2.3-1-.8-.6-1.3-1.7-1.5-2.3-.1-.3-.1-.3-.1-.4 0-.1.3-.1.3-.1.1.1 3.6.1 3.6.1zm-9.9 5.3h.3c.6.1 1.5.4 2.3 1 .8.6 1.3 1.7 1.5 2.3.1.3.1.3.1.4 0 .1-.3.1-.3.1h-3.6s-.3 0-.4-.2c-.1-.2-.1-.5-.1-.5v-2.8s0-.1.1-.2l.1-.1zm10.2 0s.1 0 .1.1c.1.1.1.2.1.2v2.8s0 .3-.1.5-.4.2-.4.2h-3.6s-.3 0-.3-.1-.1-.1.1-.4c.2-.6.8-1.6 1.5-2.3.7-.6 1.7-.9 2.3-1h.3zM8.5 9.8c-.1 0-.1.2-.1.2s-.3 2-1.4 3.4c-.9 1.1-3.9 1.9-3.9 1.9s-.2 0-.1.1c0 .1.1.1.1.1s1.2.5 2 .8c.7.4.7.7.7.7s.5 10.5.1 12.5-.5 2.9-2 5.3c-.7 1.2-1.5 2.3-2.4 3.4l-.1.2h.2c1-.3 4.1-1.4 6.1-3.6 2.4-2.6 2.8-4.3 3.4-6.5s.2-11.4.2-11.4.2-.4.5-.6c.4-.2 1-.2 1-.2h9.4s-1.6 1.5-1.6 1.6v.6c.1.1 1.5 1.4 1.3 1.4-.2 0-3.8.1-4.5-.1s-2.5-.8-2.8-.9c-.5 0-1.1-.1-1.2-.1-.3 0-.6.2-.7.4-.1.2-.1 11.7 0 11.9.1.2 1.1.1 2.2-.3s1.9-1.2 2.2-1.3l2.4-.1s.6.1.8.2c.1.1.1.7.1.7V41s0 .1.1.3c.1.2.3 0 .5 0 .6-.2 1.5-.4 2.4-1.2 1.2-1 1.7-1.9 1.9-2.7.3-.8-.2-7.7.1-8l.2-.2h2c.2 0 .3 0 .3.1v.9c0 .2.1.3.1.3.1 0 .2.1.3.1.9 0 4.3-.1 4.6-1.1.1-.4.1-7.5.1-7.7 0-.2.8-.6.9-1.2 0-.3-1.1-.8-2.2-1.4-.8-.4-1.6-.6-2-.6-.4 0-.9.3-1.3.7-.2.2-.3.5-.5.5-.8 0-3.8.1-4.1 0-.3 0 1.3-1.3 1.3-1.4s.1-.5 0-.6l-1.6-1.6H38s1.4.3 2.3 1.1c.7.6 1.2 2.3 1.1 2.4-.1.1-6.1 0-6.2 0-.3.1-.4.4-.4.6 0 .2.1.5.2.5.6.1 3.7 0 4.4 0 .1 0 .4 0 .4.1.1.1 0 .5 0 .5v19.8s0 .2.1.2.1.1.4-.1c.5-.2 1.4-.7 2.1-1.4 1-1.1 1.1-1.5 1.4-2.6.2-1.2.1-13.9.1-13.9v-.6c.1-.1.2-.1.2-.1h4s.7-.1.8-.5c.1-.4-.2-.9-.2-.9s-.4-.7-1.2-1.7c-.5-.6-1.5-1.8-1.9-1.8-1 0-2.9 1.8-2.9 1.8s-.5.1-.6 0c-.1-.1.2-1.4 1.4-2.6 1.2-1.2 3.4-1.4 3.4-1.4s.5 0 .4-.2c0-.2-.5-.2-.5-.2s-2.5-.6-3.5-1.7c-1.2-1.3-1.6-3.4-1.6-3.4s0-.4-.2-.4-.2.4-.2.4-.6 2.3-1.2 3.1c-.9 1.1-2.1 1.3-2.1 1.3l-26.4.1s-1.5-.5-2.2-1.7c-.5-1-1.1-3-1.1-3s.4-.1.2-.1zm9.5 11h9.3s.2 0 .3.1c.1.1.1.3.1.3v6.3s0 .3-.1.4c0 .1-.2.1-.2.1H18s-.2 0-.3-.1c-.1-.1-.1-.2-.1-.2v-2.2s0-.2.1-.3c.1-.1.1-.1.4-.1 1.9 0 7.8.1 8.4 0 .3-.1-.3-1-.7-1.1-.4-.1-8 0-8 0s-.1 0-.2-.1-.1-.2-.1-.2v-2.5s0-.2.1-.3c.2-.1.4-.1.4-.1zm20.5 1h-3s-.1 0-.2.1-.1.2-.1.2v11.4s0 .1-.1.2c-.5-.4-1.1-.7-1.9-1.1-2.2-.9-4-1.3-5-1.3-.9 0-.4 1.1-.9 1.6-.3.3-1 .4-1.4.6-.4.2.2.9.2.9s6.3.9 6.8 1.9c.4.8-4 1.7-4.4 1.9-.5.1-.6.6-.1.5.8-.1 2.2-.3 3.6-.7 1.6-.3 3.3-.9 4.5-1.9 2.7-2.2 2.4-6.3 2.4-6.3v-8s0-.1-.1-.2c-.1.2-.3.2-.3.2zm6.6 2.8s-.3 0-.4.1l-.1.3v7.8s0 .1.1.2.2.1.3.1c.3-.1 1-.3 1.6-.8.9-.7 1.4-1.6 1.6-2v-5.4s0-.1-.1-.2-.2 0-.2 0l-2.8-.1zm-28 6.8c-.9 0-2.8.4-5 1.3S8.8 34.9 8.8 35c0 .1 0 1.6 2.2 2.4 1.5.6 4.7 1.3 6 1.4.5 0 .4-.4-.1-.5-.5-.1-4.8-1.1-4.4-1.9.5-1 6.8-1.9 6.8-1.9s.5-.7.2-.9c-.4-.2-1.2-.3-1.4-.6-.7-.5-.1-1.6-1-1.6z"/></svg>