<svg xmlns="http://www.w3.org/2000/svg" xml:space="preserve" viewBox="0 0 160 50"><path d="M10.7 0h8.8L12 19.4h6.9l-8.1 23.2h8.1V50H1.3v-7.5l6.3-13.8H0L10.7 0zm23.7 12.5 3.1-6.3h-5l-1.3 1.9h-8.8L26.9 0h21.3l-5.7 12.5h6.3v26.3h-20v3.8h20V50H21.3V12.5h13.1zm6.9 18.7V20h-3.1v8.8h-6.3V20h-3.2v11.3h12.6zM104.4 0v7.5h-40v35h40V50H56.9V0h47.5zm-25 25L68.1 11.2h10l6.3 7.7 6.3-7.7h10L89.4 25l11.3 13.8h-10l-6.3-7.7-6.3 7.7h-10L79.4 25zM155 0v7.5h-14.4V10H160v13.1h-7.5v-7.5h-11.9v1.9l2.1 1.7 1-1.1h6.3V25l9.4 7.5v9.4l-21.9-18.1h-1.3l-23.1 18.1v-9.4l9.4-7v-7.4h6.3l1.5 1.6 2.9-2.2v-1.9H120v7.5h-7.5V10h20.7V7.5h-15.7V0H155zm-26.3 33.1h3.8l-.1-2.5 3.9-3h1.3l13.8 11.3L140.6 50h-13.2v-7.5h13.8v-3.8h-19.4l6.9-5.6z"/></svg>
