<svg xmlns="http://www.w3.org/2000/svg" xml:space="preserve" viewBox="0 0 200 52"><path d="M28.9 16.8h-8.3l1.4-4-2.9-1.9 4-1.2.5-1.1-8.5-6.5-5.6 18.3h20.2z"/><path d="m21.7 11.1 7.7 2.8 1.7 6.9 5.1-7 8.9-2.3-7.4-2.6L36.3.8l-5.7 8.3z"/><path d="m31.4 6.4 2.4-3.8H19.3l4.3 3.8zm14.4 0L44.6 10l2.6 1.7-3.8 1.6-1.6 3.5h-6.6l-2.4 3.6h17.4l4.5-17.8H37.6l.8 3.8zM30 42.7l1.5-5.6h12.8l.8-3H32.3l1.2-4.7H47l1-3H34.3l1.1-3.8h-8.2L26 26.5H14.5l1-3.8H6.9s-2.3 9-4.7 14.4c3.9-.3 10-4.7 11.3-7.6h11.8L24 34.2h-9.4l-2 2.9h10.5l-1.5 5.6H2.2l-2 2.8h77.5l1.1-2.8H30zM66.1 6.4h28.5L94 9l7.3 3.9L104 2.6H87.7l.4-2.6H77l-.9 2.6H58.5l-3.3 10.3c4.7-1.7 10-4.9 10.9-6.5z"/><path d="M76.1 7.9h-9.7c-.7 3.5-1.6 6.7-3.7 9.8 8.6-.1 12.2-2.5 13.4-9.8zM90.5 18l1.8-10.1h-9s-.6.9-1.1 3.5c-1 5.3 8.3 6.6 8.3 6.6zm1.8 16h-31l1.6-4.7h31l2.9-9.6H57.2l-1 2.9H88l-1.1 3.8H55.2L51.6 37h32.2c-.6 3.3-1.8 9.3-5 12.9v2c1.7-.4 8.2-.6 10.7-6.5h9.3l.8-2.9h-9.4l2.1-8.5zm64.9-27.7h-3.8l-.8 3h4.2zm34.7 34.2h4.1l.6-3h-3.9z"/><path d="M167.1 12.9h-11l-1.5 3.4h2.7l-8.7 26-10-17 .6-2.7h7.9l.8-2.9H140l2.3-10.4h8.8l.9-3h-9.1l.9-3.8H136l-1 3.8h-4l.9-3.8H124l-1 3.8h-6.6l1-3.8h-8.6s-2.3 9-4.7 14.4c3.9-.3 10-4.7 11.3-7.6h6.9l-2.8 10.4h-13l-1 2.9h2.2l-1.2 4.1H102l-1.2 3h4.9l-4.9 15.8h93.8l1-3h-37.1l8.6-29.6zm-36.8-3.6h3.7l-2.5 10.4H128l2.3-10.4zm-20.1 33.3 4.1-12.8h6.3l1-3h-6.4l1.2-4.1h14.3l-.9 3.3-15.4 16.6h-4.2zm14.2 0 11.4-13.8 7.1 13.8h-18.5z"/><path d="M188.3 9.3h10l1.5-6.4h-9.2l-1.3 3.3h-10.2l1-3.3h-8l-1.2 3.3h-2.5l.8-3.3h-9l-2.8 8.6h9.4l.9-2.2h12.4l-1 3.5h-9.9l-8.6 27.6h29.7l8.5-27.6h-11.3l.8-3.5zm.4 7.5-6.9 20.9h-11.4l1.4-4.5h8.4l1.3-3.5H173l1.7-5.2h8.9l1.3-3.5h-9.1l1.3-4 11.6-.2z"/></svg>
