<svg xmlns="http://www.w3.org/2000/svg" xml:space="preserve" viewBox="0 8 240 108"><switch><g><path d="M46 50.89h-8.74l1.52-4.22-3-1.93 4.21-1.27.5-1.15-8.86-6.84-5.93 19.11h21.08z"/><path d="m38.47 44.93 8.05 3.01 1.81 7.12 5.28-7.28 9.33-2.34-7.72-2.83-1.5-8.44-5.96 8.6z"/><path d="m48.58 40 2.5-4.03H36.03L40.5 40zm15.14 0-1.3 3.81 2.69 1.77-3.92 1.59-1.69 3.76-6.85-.01-2.51 3.67h18.14l4.69-18.62H55.11l.75 4.03zM47.18 77.89l1.57-5.86h13.42l.78-3.06-13.39.03 1.31-4.9H65l1.04-3.09H51.7l1.08-4.04h-8.61l-1.12 4.04H31l1.04-4.04H23s-2.42 9.44-4.86 15.05c4.11-.31 10.44-4.85 11.75-7.92h12.3l-1.37 4.92-9.82.04-2.06 2.97h11.04l-1.63 5.86H18.14L16 80.83h81l1.06-2.94H47.18zM84.89 40h29.78l-.67 2.67 7.63 4.07 2.89-10.77h-17.11l.67-2.86H96.52l-1.19 2.86H76.89l-3.41 10.77c4.96-1.7 10.45-5.04 11.41-6.74z"/><path d="M95.33 41.56H85.19c-.66 3.73-1.75 7.02-3.88 10.18 8.99 0 12.84-2.55 14.02-10.18zm15.04 10.57 1.92-10.58h-9.41s-.55.88-1.11 3.73c-1.08 5.56 8.6 6.85 8.6 6.85zm1.93 16.78H79.85l1.7-4.91H114l3.04-10H75.56l-.96 2.98h33.19l-1.19 3.98H73.48L69.7 72.07h33.56c-.64 3.51-1.93 9.74-5.2 13.48v2.3c1.76-.37 8.56-.91 11.17-7.02h9.69l.81-2.99h-9.78l2.35-8.93zm67.85-28.98h-4l-.89 3.17h4.3zm36.15 35.76h4.29l.6-3.17h-4z"/><path d="M190.37 46.85h-11.48l-1.56 3.6h2.81l-9.08 27.16-10.36-17.85.61-2.78h8.25l.78-2.98h-8.38l2.38-10.9h9.24l.86-3.09h-9.42l.88-4.04h-8.22l-.99 4.04h-4.01l.88-4.04h-8.22l-1.04 4.04h-6.92l1.04-4.04h-9.04s-2.42 9.44-4.86 15.05c4.11-.31 10.44-4.85 11.75-7.92h7.24l-2.8 10.9h-13.56l-1.04 2.98h2.33l-1.32 4.28h-4.68l-1.33 3.11h5.06l-5.06 16.46h98l.96-3.06H181.3l9.07-30.92zm-38.38-3.75h3.93L153.26 54h-3.65l2.38-10.9zm-20.95 34.68 4.29-13.41h6.6l1.04-3.11h-6.67l1.33-4.28h14.9l-.86 3.53-16.13 17.27h-4.5zm14.75 0 11.9-14.43 7.38 14.43h-19.28z"/><path d="M212.58 43.1h10.38l1.56-6.66h-9.56l-1.41 3.48h-10.67l.96-3.48h-8.37l-1.26 3.48h-2.59l.81-3.48h-9.41l-2.89 8.96h9.78l.89-2.31h12.95l-.99 3.74h-10.31l-8.99 28.85h31.04l8.89-28.85h-11.84l1.03-3.73zm.38 7.79-7.19 21.78h-11.85l1.55-4.74h8.79l1.41-3.7h-8.99l1.77-5.41h9.3l1.41-3.7h-9.5l1.38-4.22h11.92z"/></g></switch></svg>